<?xml version="1.0" encoding="utf-8"?>
<!-- Generator: Adobe Illustrator 25.4.1, SVG Export Plug-In . SVG Version: 6.00 Build 0)  -->
<svg version="1.1" id="Layer_1" xmlns="http://www.w3.org/2000/svg" xmlns:xlink="http://www.w3.org/1999/xlink" x="0px" y="0px"
	 viewBox="0 0 420 300" style="enable-background:new 0 0 420 300;" xml:space="preserve">
<style type="text/css">
	.st0{fill:#F2F4F5;}
	.st1{fill:#6C7072;}
</style>
<rect y="-2" class="st0" width="420" height="302"/>
<g>
	<g>
		<path class="st1" d="M241.9,185.4c-0.9,0-1.8-0.3-2.5-1l-63.8-63.8c-1.4-1.4-1.4-3.6,0-5c1.4-1.4,3.6-1.4,5,0l63.8,63.8
			c1.4,1.4,1.4,3.6,0,5C243.7,185.1,242.8,185.4,241.9,185.4z"/>
	</g>
	<g>
		<path class="st1" d="M220.7,139.4c-2,0-3.6-1.6-3.6-3.5s1.6-3.5,3.5-3.5h0c2,0,3.5,1.6,3.5,3.5S222.6,139.4,220.7,139.4z"/>
	</g>
	<g>
		<path class="st1" d="M227.7,181.9h-35.4c-7.8,0-14.2-6.4-14.2-14.2v-35.4c0-3.8,1.5-7.4,4.2-10.1c1.4-1.4,3.6-1.4,5,0
			c1.4,1.4,1.4,3.6,0,5c-1.4,1.3-2.1,3.1-2.1,5v35.4c0,3.9,3.2,7.1,7.1,7.1h35.4c1.9,0,3.7-0.7,5-2.1c1.4-1.4,3.6-1.4,5,0
			s1.4,3.6,0,5C235.1,180.4,231.5,181.9,227.7,181.9z M238.3,167.7c-2,0-3.5-1.6-3.5-3.5v-31.9c0-3.9-3.2-7.1-7.1-7.1h-31.9
			c-2,0-3.5-1.6-3.5-3.5c0-2,1.6-3.5,3.5-3.5h31.9c7.8,0,14.2,6.4,14.2,14.2v31.9C241.9,166.1,240.3,167.7,238.3,167.7z"/>
	</g>
	<g>
		<path class="st1" d="M224.2,167.7c-0.9,0-1.8-0.3-2.5-1L204,149c-1.9-1.8-3.7-1.8-5.7,0l-14.1,14.1c-1.4,1.4-3.6,1.4-5,0
			s-1.4-3.6,0-5l14.2-14.2c4.7-4.5,10.9-4.5,15.6,0l17.8,17.8c1.4,1.4,1.4,3.6,0,5C226,167.4,225.1,167.7,224.2,167.7z"/>
	</g>
	<g>
		<path class="st1" d="M238.3,164.2c-0.9,0-1.8-0.3-2.5-1l-7.1-7.1c-0.7-0.7-1.8-1.4-3.1-1.3c-1.9,0.2-3.7-1.2-3.9-3.2
			c-0.2-1.9,1.2-3.7,3.2-3.9c3.1-0.3,6.2,0.9,8.8,3.3l7.1,7.1c1.4,1.4,1.4,3.6,0,5C240.1,163.8,239.2,164.2,238.3,164.2z"/>
	</g>
</g>
</svg>
