<?xml version="1.0" encoding="utf-8"?>
<!-- Generator: Adobe Illustrator 25.4.1, SVG Export Plug-In . SVG Version: 6.00 Build 0)  -->
<svg version="1.1" id="Layer_1" xmlns="http://www.w3.org/2000/svg" xmlns:xlink="http://www.w3.org/1999/xlink" x="0px" y="0px"
	 viewBox="0 0 32 32" style="enable-background:new 0 0 32 32;" xml:space="preserve">
<style type="text/css">
	.st0{fill:#FFFFFF;}
	.st1{fill:#090A0A;}
</style>
<circle class="st0" cx="16" cy="16" r="13.8"/>
<g>
	<path class="st1" d="M17.6,12.9c-0.5-0.3-1-0.4-1.6-0.4c-0.6,0-1.1,0.1-1.6,0.4c-0.5,0.3-0.9,0.7-1.2,1.2c-0.3,0.5-0.4,1.1-0.4,1.7
		V23h6.5v-7.2c0-0.7-0.2-1.2-0.5-1.7C18.5,13.6,18.1,13.2,17.6,12.9z"/>
	<path class="st1" d="M16,0C7.2,0,0,7.2,0,16c0,8.9,7.1,16,16,16s16-7.1,16-16C32,7.2,24.9,0,16,0z M23.6,25.5H18c0,0.1,0,0.2,0,0.2
		c0,0.4-0.1,0.7-0.3,1c-0.2,0.3-0.4,0.6-0.7,0.7s-0.6,0.3-1,0.3c-0.6,0-1-0.2-1.4-0.6c-0.4-0.4-0.6-0.9-0.6-1.4c0-0.1,0-0.2,0-0.2
		H8.4V23h1.5v-7.2c0-1.1,0.3-2.1,0.8-3c0.5-0.9,1.2-1.6,2.2-2c0.9-0.5,2-0.7,3.3-0.7c1.2,0,2.3,0.2,3.3,0.7c0.9,0.5,1.6,1.2,2.1,2
		c0.5,0.9,0.8,1.9,0.8,3V23h1.5L23.6,25.5L23.6,25.5z M22.9,10.5L16,6.9l-6.9,3.6L7.9,8.4l7.5-3.9c0.4-0.2,0.8-0.2,1.1,0l7.5,3.9
		L22.9,10.5z"/>
</g>
</svg>
