<?xml version="1.0" encoding="utf-8"?>
<!-- Generator: Adobe Illustrator 25.2.1, SVG Export Plug-In . SVG Version: 6.00 Build 0)  -->
<svg version="1.1" id="Layer_1" xmlns="http://www.w3.org/2000/svg" xmlns:xlink="http://www.w3.org/1999/xlink" x="0px" y="0px"
	 viewBox="0 0 510.2 99.2" style="enable-background:new 0 0 510.2 99.2;" xml:space="preserve">
<style type="text/css">
	.st0{fill:#090A0A;}
	.st1{fill:#5538EE;}
</style>
<g>
	<g>
		<path class="st0" d="M55.9,40.4c-1.5-0.8-3.1-1.3-4.9-1.3c-1.7,0-3.3,0.4-4.8,1.3c-1.5,0.8-2.7,2-3.6,3.5
			c-0.9,1.5-1.3,3.2-1.3,5.2v21.5h19.6V49.1c0-2-0.5-3.7-1.4-5.2C58.6,42.4,57.4,41.3,55.9,40.4z"/>
		<path class="st0" d="M51,1.7C24.6,1.7,3.1,23.2,3.1,49.6c0,26.5,21.4,47.9,47.9,47.9c26.5,0,47.9-21.4,47.9-47.9
			C98.9,23.2,77.5,1.7,51,1.7z M73.9,78h-17c0,0.2,0,0.5,0,0.7c0,1.1-0.3,2.1-0.8,3.1c-0.5,0.9-1.3,1.7-2.2,2.2
			c-0.9,0.5-1.9,0.8-3,0.8c-1.7,0-3.1-0.6-4.3-1.8c-1.2-1.2-1.8-2.6-1.8-4.3c0-0.2,0-0.5,0-0.7H28.1v-7.4h4.4V49
			c0-3.3,0.8-6.3,2.3-8.9c1.5-2.6,3.7-4.7,6.5-6.1c2.8-1.5,6-2.2,9.8-2.2c3.7,0,7,0.7,9.8,2.2c2.8,1.5,4.9,3.5,6.4,6.1
			c1.5,2.6,2.3,5.6,2.3,8.9v21.5h4.4V78z M71.8,33.2L51,22.3L30.3,33.2l-3.4-6.5l22.5-11.8c1.1-0.6,2.4-0.6,3.4,0l22.5,11.8
			L71.8,33.2z"/>
	</g>
	<path d="M146,77V55.2c0-1.1-0.1-2.2-0.3-3.2c-0.2-1-0.5-1.9-0.9-2.7c-0.4-0.8-1-1.4-1.8-1.8c-0.8-0.5-1.8-0.7-2.9-0.7
		c-1.2,0-2.2,0.2-3.1,0.7c-0.9,0.5-1.6,1.1-2.2,1.9s-1,1.7-1.3,2.8c-0.3,1-0.4,2.1-0.4,3.3V77h-13.3V37h12.8v5.5h0.2
		c0.5-0.9,1.1-1.7,1.9-2.5c0.8-0.8,1.7-1.5,2.7-2.1c1-0.6,2.2-1.1,3.4-1.4c1.2-0.4,2.5-0.6,3.9-0.6c2.7,0,5,0.5,6.8,1.4
		c1.9,1,3.4,2.2,4.5,3.7c1.2,1.5,2,3.3,2.5,5.3c0.5,2,0.8,4,0.8,6V77H146z"/>
	<path d="M208.5,56.8c0,3.3-0.6,6.2-1.8,8.9c-1.2,2.7-2.8,4.9-4.8,6.8c-2,1.8-4.4,3.3-7.1,4.3s-5.5,1.5-8.6,1.5
		c-3,0-5.9-0.5-8.6-1.5c-2.7-1-5.1-2.5-7.1-4.3c-2-1.8-3.6-4.1-4.8-6.8c-1.2-2.7-1.8-5.6-1.8-8.9s0.6-6.2,1.8-8.8
		c1.2-2.6,2.8-4.9,4.8-6.7c2-1.8,4.4-3.2,7.1-4.2c2.7-1,5.6-1.4,8.6-1.4c3.1,0,5.9,0.5,8.6,1.4c2.7,1,5,2.4,7.1,4.2
		c2,1.8,3.6,4,4.8,6.7C207.9,50.6,208.5,53.6,208.5,56.8z M195.8,56.8c0-1.3-0.2-2.5-0.6-3.8c-0.4-1.2-1-2.3-1.8-3.3
		c-0.8-0.9-1.8-1.7-3-2.3c-1.2-0.6-2.5-0.9-4.1-0.9s-2.9,0.3-4.1,0.9c-1.2,0.6-2.2,1.4-2.9,2.3c-0.8,0.9-1.4,2-1.8,3.3
		c-0.4,1.2-0.6,2.5-0.6,3.8c0,1.3,0.2,2.5,0.6,3.8c0.4,1.2,1,2.3,1.8,3.3c0.8,1,1.8,1.8,3,2.4c1.2,0.6,2.5,0.9,4.1,0.9
		c1.6,0,2.9-0.3,4.1-0.9c1.2-0.6,2.2-1.4,3-2.4c0.8-1,1.4-2.1,1.8-3.3C195.6,59.4,195.8,58.1,195.8,56.8z"/>
	<path d="M229.6,46.8v15.3c0,1.9,0.4,3.3,1.1,4.2c0.7,0.9,2,1.4,3.9,1.4c0.6,0,1.3-0.1,2-0.2c0.7-0.1,1.3-0.3,1.8-0.5l0.2,9.6
		c-0.9,0.3-2.1,0.6-3.5,0.8c-1.4,0.2-2.8,0.4-4.2,0.4c-2.7,0-4.9-0.3-6.8-1c-1.8-0.7-3.3-1.6-4.4-2.9c-1.1-1.3-1.9-2.8-2.4-4.5
		c-0.5-1.7-0.7-3.7-0.7-5.8V46.8h-6.4V37h6.4V26.4h12.9V37h9.4v9.8H229.6z"/>
	<path d="M259.5,24.2c0,1-0.2,2-0.6,2.9c-0.4,0.9-0.9,1.6-1.6,2.3c-0.7,0.6-1.5,1.2-2.4,1.5c-0.9,0.4-1.9,0.6-2.9,0.6
		c-2.1,0-3.9-0.7-5.4-2.1c-1.4-1.4-2.2-3.1-2.2-5.1c0-1,0.2-1.9,0.6-2.8c0.4-0.9,0.9-1.6,1.6-2.3c0.7-0.6,1.5-1.2,2.4-1.6
		c0.9-0.4,1.9-0.6,3-0.6c1,0,2,0.2,2.9,0.6c0.9,0.4,1.7,0.9,2.4,1.5c0.7,0.6,1.2,1.4,1.6,2.3C259.3,22.2,259.5,23.2,259.5,24.2z
		 M245.3,77V37h9.7c1.9,0,3.5,1.6,3.5,3.5V77H245.3z"/>
	<path d="M293.8,26c-0.5-0.2-1-0.3-1.7-0.4s-1.3-0.2-1.9-0.2c-1.2,0-2.2,0.2-3,0.6c-0.8,0.4-1.3,1-1.8,1.7c-0.4,0.7-0.7,1.5-0.9,2.5
		c-0.2,0.9-0.2,1.8-0.2,2.7v4h8.9v9.8h-8.9V77h-13.2V46.8h-7.3V37h7.3v-3.9c0-2.5,0.3-4.8,0.8-7c0.5-2.2,1.5-4.2,2.8-5.9
		c1.3-1.7,3.1-3,5.3-4c2.2-1,5-1.5,8.3-1.5c1.1,0,2.2,0.1,3.3,0.2s2.1,0.3,3,0.6L293.8,26z"/>
	<path d="M297.7,42.4c2.4-2.3,5.1-3.9,8.2-5.1c3.1-1.1,6.3-1.7,9.6-1.7c3.4,0,6.2,0.4,8.6,1.2s4.2,2.1,5.7,3.9s2.5,3.9,3.2,6.6
		c0.7,2.7,1,5.8,1,9.4V77h-12.1v-4.3h-0.2c-1,1.7-2.6,2.9-4.6,3.9c-2.1,0.9-4.3,1.4-6.7,1.4c-1.6,0-3.3-0.2-5-0.6
		c-1.7-0.4-3.3-1.1-4.7-2.1c-1.4-1-2.6-2.3-3.5-3.9c-0.9-1.6-1.4-3.6-1.4-6c0-2.9,0.8-5.2,2.4-7c1.6-1.8,3.6-3.1,6.1-4.1
		c2.5-1,5.3-1.6,8.3-1.9c3.1-0.3,6-0.5,8.9-0.5v-0.6c0-2-0.7-3.4-2.1-4.4c-1.4-0.9-3.1-1.4-5.1-1.4c-1.9,0-3.7,0.4-5.4,1.2
		s-3.2,1.8-4.5,2.9L297.7,42.4z M321.9,59.6h-1.7c-1.4,0-2.9,0.1-4.4,0.2c-1.5,0.1-2.8,0.4-3.9,0.8c-1.2,0.4-2.1,0.9-2.9,1.6
		c-0.8,0.7-1.1,1.7-1.1,2.9c0,0.8,0.2,1.4,0.5,1.9c0.3,0.5,0.8,1,1.3,1.3c0.5,0.3,1.2,0.6,1.8,0.7c0.7,0.1,1.4,0.2,2,0.2
		c2.7,0,4.7-0.7,6.2-2.2c1.4-1.5,2.1-3.5,2.1-6V59.6z"/>
	<path class="st1" d="M359.8,69.9c0,2.3-0.8,4.1-2.4,5.6c-1.6,1.5-3.5,2.3-5.7,2.3c-1.1,0-2.2-0.2-3.2-0.6s-1.9-1-2.6-1.6
		c-0.8-0.7-1.3-1.5-1.8-2.5c-0.4-0.9-0.6-2-0.6-3.1c0-1.1,0.2-2.1,0.6-3.1c0.4-1,1-1.8,1.8-2.5c0.8-0.7,1.6-1.3,2.6-1.7
		c1-0.4,2.1-0.6,3.2-0.6c2.2,0,4.1,0.8,5.7,2.3C359,65.8,359.8,67.7,359.8,69.9z"/>
	<path d="M369.3,42.4c2.4-2.3,5.1-3.9,8.2-5.1c3.1-1.1,6.3-1.7,9.6-1.7c3.4,0,6.2,0.4,8.6,1.2s4.2,2.1,5.7,3.9s2.5,3.9,3.2,6.6
		c0.7,2.7,1,5.8,1,9.4V77h-12.1v-4.3h-0.2c-1,1.7-2.6,2.9-4.6,3.9c-2.1,0.9-4.3,1.4-6.7,1.4c-1.6,0-3.3-0.2-5-0.6
		c-1.7-0.4-3.3-1.1-4.7-2.1c-1.4-1-2.6-2.3-3.5-3.9c-0.9-1.6-1.4-3.6-1.4-6c0-2.9,0.8-5.2,2.4-7c1.6-1.8,3.6-3.1,6.1-4.1
		c2.5-1,5.3-1.6,8.3-1.9c3.1-0.3,6-0.5,8.9-0.5v-0.6c0-2-0.7-3.4-2.1-4.4c-1.4-0.9-3.1-1.4-5.1-1.4c-1.9,0-3.7,0.4-5.4,1.2
		s-3.2,1.8-4.5,2.9L369.3,42.4z M393.5,59.6h-1.7c-1.4,0-2.9,0.1-4.4,0.2c-1.5,0.1-2.8,0.4-3.9,0.8c-1.2,0.4-2.1,0.9-2.9,1.6
		c-0.8,0.7-1.1,1.7-1.1,2.9c0,0.8,0.2,1.4,0.5,1.9c0.3,0.5,0.8,1,1.3,1.3c0.5,0.3,1.2,0.6,1.8,0.7c0.7,0.1,1.4,0.2,2,0.2
		c2.7,0,4.7-0.7,6.2-2.2c1.4-1.5,2.1-3.5,2.1-6V59.6z"/>
	<path d="M457.1,56.8c0,2.8-0.4,5.5-1.3,8s-2.1,4.8-3.7,6.8c-1.6,2-3.6,3.5-6,4.7c-2.4,1.2-5,1.8-8,1.8c-2.5,0-4.8-0.5-7-1.5
		c-2.2-1-3.9-2.3-5.1-4.1h-0.2v15.7h-13.2V37h12.5v4.9h0.2c1.2-1.6,2.9-3,5.1-4.2c2.2-1.2,4.7-1.8,7.7-1.8c2.9,0,5.5,0.6,7.9,1.7
		c2.4,1.1,4.4,2.7,6,4.6c1.6,1.9,2.9,4.2,3.8,6.7C456.7,51.4,457.1,54.1,457.1,56.8z M444.3,56.8c0-1.3-0.2-2.5-0.6-3.8
		c-0.4-1.2-1-2.3-1.8-3.3c-0.8-0.9-1.8-1.7-2.9-2.3c-1.2-0.6-2.5-0.9-4.1-0.9c-1.5,0-2.8,0.3-4,0.9c-1.2,0.6-2.2,1.4-3,2.3
		c-0.8,1-1.5,2.1-1.9,3.3c-0.5,1.2-0.7,2.5-0.7,3.8s0.2,2.5,0.7,3.8c0.5,1.2,1.1,2.3,1.9,3.3c0.8,1,1.8,1.7,3,2.3
		c1.2,0.6,2.5,0.9,4,0.9c1.6,0,2.9-0.3,4.1-0.9c1.2-0.6,2.2-1.4,2.9-2.3c0.8-1,1.4-2.1,1.8-3.3C444.1,59.4,444.3,58.1,444.3,56.8z"
		/>
	<path d="M507.1,56.8c0,2.8-0.4,5.5-1.3,8s-2.1,4.8-3.7,6.8c-1.6,2-3.6,3.5-6,4.7c-2.4,1.2-5,1.8-8,1.8c-2.5,0-4.8-0.5-7-1.5
		c-2.2-1-3.9-2.3-5.1-4.1h-0.2v15.7h-13.2V37h12.5v4.9h0.2c1.2-1.6,2.9-3,5.1-4.2c2.2-1.2,4.7-1.8,7.7-1.8c2.9,0,5.5,0.6,7.9,1.7
		c2.4,1.1,4.4,2.7,6,4.6c1.6,1.9,2.9,4.2,3.8,6.7C506.7,51.4,507.1,54.1,507.1,56.8z M494.3,56.8c0-1.3-0.2-2.5-0.6-3.8
		c-0.4-1.2-1-2.3-1.8-3.3c-0.8-0.9-1.8-1.7-2.9-2.3c-1.2-0.6-2.5-0.9-4.1-0.9c-1.5,0-2.8,0.3-4,0.9c-1.2,0.6-2.2,1.4-3,2.3
		c-0.8,1-1.5,2.1-1.9,3.3c-0.5,1.2-0.7,2.5-0.7,3.8s0.2,2.5,0.7,3.8c0.5,1.2,1.1,2.3,1.9,3.3c0.8,1,1.8,1.7,3,2.3
		c1.2,0.6,2.5,0.9,4,0.9c1.6,0,2.9-0.3,4.1-0.9c1.2-0.6,2.2-1.4,2.9-2.3c0.8-1,1.4-2.1,1.8-3.3C494.1,59.4,494.3,58.1,494.3,56.8z"
		/>
</g>
</svg>
